<?xml version="1.0" encoding="UTF-8"?>
<!DOCTYPE svg PUBLIC "-//W3C//DTD SVG 1.1//EN" "http://www.w3.org/Graphics/SVG/1.1/DTD/svg11.dtd">
<svg xmlns="http://www.w3.org/2000/svg" version="1.1" width="500px" height="202px" style="shape-rendering:geometricPrecision; text-rendering:geometricPrecision; image-rendering:optimizeQuality; fill-rule:evenodd; clip-rule:evenodd" xmlns:xlink="http://www.w3.org/1999/xlink">
<g><path style="opacity:1" fill="#7e1536" d="M 73.5,7.5 C 88.8333,7.5 104.167,7.5 119.5,7.5C 125.009,29.2034 130.676,50.8701 136.5,72.5C 122.833,72.5 109.167,72.5 95.5,72.5C 90.6489,53.7641 85.4822,35.0974 80,16.5C 75,34.5 70,52.5 65,70.5C 63.5074,72.5598 61.6741,72.8932 59.5,71.5C 65.0087,52.8064 70.0087,33.9731 74.5,15C 73.8405,12.5379 73.5072,10.0379 73.5,7.5 Z"/></g>
<g><path style="opacity:1" fill="#7d1235" d="M 188.5,7.5 C 202.833,7.5 217.167,7.5 231.5,7.5C 229.917,29.1337 229.251,50.8004 229.5,72.5C 216.833,72.5 204.167,72.5 191.5,72.5C 191.414,50.7786 190.414,29.1119 188.5,7.5 Z"/></g>
<g><path style="opacity:1" fill="#7e1737" d="M 318.5,7.5 C 372.501,7.33334 426.501,7.50001 480.5,8C 475.993,14.002 471.326,19.8354 466.5,25.5C 451.565,16.0157 435.231,11.6824 417.5,12.5C 417.5,32.5 417.5,52.5 417.5,72.5C 404.5,72.5 391.5,72.5 378.5,72.5C 378.5,52.5 378.5,32.5 378.5,12.5C 360.796,11.7358 344.463,16.0691 329.5,25.5C 325.531,21.5722 322.031,17.2388 319,12.5C 318.506,10.8659 318.34,9.19919 318.5,7.5 Z"/></g>
<g><path style="opacity:0.814" fill="#7b0e34" d="M 58.5,89.5 C 60.8568,89.3367 63.1902,89.5034 65.5,90C 69.1322,91.3727 69.2988,92.8727 66,94.5C 61.3292,92.2487 58.4958,93.582 57.5,98.5C 57.7605,100.187 58.4272,101.687 59.5,103C 62.4369,102.989 65.2702,103.155 68,103.5C 68.4479,105.409 67.6145,106.576 65.5,107C 56.4742,108.48 52.6409,104.647 54,95.5C 54.8041,92.8541 56.3041,90.8541 58.5,89.5 Z"/></g>
<g><path style="opacity:0.824" fill="#7b0e34" d="M 70.5,89.5 C 74.1817,89.3347 77.8484,89.5014 81.5,90C 85.4615,93.4132 85.4615,96.9132 81.5,100.5C 82.5,102.5 83.5,104.5 84.5,106.5C 83.277,107.614 81.9437,107.781 80.5,107C 79.373,105.247 78.373,103.413 77.5,101.5C 76.675,100.614 75.675,100.281 74.5,100.5C 74.5,102.833 74.5,105.167 74.5,107.5C 73.1667,107.5 71.8333,107.5 70.5,107.5C 70.5,101.5 70.5,95.5 70.5,89.5 Z M 74.5,93.5 C 76.5,93.5 78.5,93.5 80.5,93.5C 80.2407,97.0681 78.2407,98.4015 74.5,97.5C 74.5,96.1667 74.5,94.8333 74.5,93.5 Z"/></g>
<g><path style="opacity:0.791" fill="#7b0e33" d="M 86.5,89.5 C 90.5,89.5 94.5,89.5 98.5,89.5C 98.67,90.8221 98.3366,91.9887 97.5,93C 95.1902,93.4966 92.8568,93.6633 90.5,93.5C 90.5,94.5 90.5,95.5 90.5,96.5C 92.1667,96.5 93.8333,96.5 95.5,96.5C 95.5,97.8333 95.5,99.1667 95.5,100.5C 93.8333,100.5 92.1667,100.5 90.5,100.5C 90.5,101.5 90.5,102.5 90.5,103.5C 93.6852,103.02 96.5185,103.686 99,105.5C 100.667,100.5 102.333,95.5 104,90.5C 106.33,88.9683 108.33,89.3017 110,91.5C 112.017,96.7127 113.517,102.046 114.5,107.5C 113.167,107.5 111.833,107.5 110.5,107.5C 110.5,106.5 110.5,105.5 110.5,104.5C 107.319,104.002 104.653,104.835 102.5,107C 97.1771,107.499 91.8437,107.666 86.5,107.5C 86.5,101.5 86.5,95.5 86.5,89.5 Z M 106.5,95.5 C 107.339,96.6412 108.006,97.9745 108.5,99.5C 107.675,100.386 106.675,100.719 105.5,100.5C 105.629,98.7839 105.962,97.1172 106.5,95.5 Z"/></g>
<g><path style="opacity:0.78" fill="#7b0e34" d="M 112.5,89.5 C 117.167,89.5 121.833,89.5 126.5,89.5C 126.5,90.8333 126.5,92.1667 126.5,93.5C 124.833,93.5 123.167,93.5 121.5,93.5C 121.5,98.1667 121.5,102.833 121.5,107.5C 120.167,107.5 118.833,107.5 117.5,107.5C 117.5,102.833 117.5,98.1667 117.5,93.5C 115.833,93.5 114.167,93.5 112.5,93.5C 112.5,92.1667 112.5,90.8333 112.5,89.5 Z"/></g>
<g><path style="opacity:0.893" fill="#7b0f35" d="M 128.5,89.5 C 129.5,89.5 130.5,89.5 131.5,89.5C 131.5,95.5 131.5,101.5 131.5,107.5C 130.5,107.5 129.5,107.5 128.5,107.5C 128.5,101.5 128.5,95.5 128.5,89.5 Z"/></g>
<g><path style="opacity:0.773" fill="#790e32" d="M 133.5,89.5 C 134.978,89.238 136.311,89.5713 137.5,90.5C 138.967,94.069 140.134,97.7357 141,101.5C 142.917,98.0854 144.25,94.4187 145,90.5C 146.356,89.6198 147.856,89.2865 149.5,89.5C 147.778,95.1682 145.944,100.835 144,106.5C 142.301,107.406 140.467,107.739 138.5,107.5C 136.833,101.5 135.167,95.5 133.5,89.5 Z"/></g>
<g><path style="opacity:0.834" fill="#7b0d32" d="M 151.5,89.5 C 155.167,89.5 158.833,89.5 162.5,89.5C 162.5,90.8333 162.5,92.1667 162.5,93.5C 159.833,93.5 157.167,93.5 154.5,93.5C 154.5,94.5 154.5,95.5 154.5,96.5C 156.167,96.5 157.833,96.5 159.5,96.5C 159.5,97.8333 159.5,99.1667 159.5,100.5C 157.833,100.5 156.167,100.5 154.5,100.5C 154.5,101.5 154.5,102.5 154.5,103.5C 157.167,103.5 159.833,103.5 162.5,103.5C 162.5,104.833 162.5,106.167 162.5,107.5C 158.833,107.5 155.167,107.5 151.5,107.5C 151.5,101.5 151.5,95.5 151.5,89.5 Z"/></g>
<g><path style="opacity:0.845" fill="#7b0e33" d="M 175.5,89.5 C 178.685,89.0196 181.519,89.6863 184,91.5C 184.612,93.2373 183.946,94.2373 182,94.5C 180.715,94.0496 179.548,93.3829 178.5,92.5C 178.167,92.8333 177.833,93.1667 177.5,93.5C 179.149,95.6499 180.982,97.6499 183,99.5C 184.186,97.3234 186.019,96.3234 188.5,96.5C 186.571,100.589 187.238,104.089 190.5,107C 185.243,106.924 179.91,106.924 174.5,107C 171.878,103.87 171.878,100.703 174.5,97.5C 172.955,94.5102 173.289,91.8435 175.5,89.5 Z M 176.5,100.5 C 179.564,100.981 180.398,102.314 179,104.5C 177.294,103.692 176.461,102.359 176.5,100.5 Z"/></g>
<g><path style="opacity:0.896" fill="#7b0f35" d="M 200.5,89.5 C 201.5,89.5 202.5,89.5 203.5,89.5C 203.5,95.5 203.5,101.5 203.5,107.5C 202.5,107.5 201.5,107.5 200.5,107.5C 200.5,101.5 200.5,95.5 200.5,89.5 Z"/></g>
<g><path style="opacity:0.8" fill="#7a0f34" d="M 206.5,89.5 C 208.288,89.2148 209.955,89.5481 211.5,90.5C 212.747,93.3286 214.247,95.9952 216,98.5C 216.498,95.5184 216.665,92.5184 216.5,89.5C 217.833,89.5 219.167,89.5 220.5,89.5C 220.5,95.5 220.5,101.5 220.5,107.5C 219.127,107.657 217.793,107.49 216.5,107C 214.542,104.252 212.709,101.418 211,98.5C 210.502,101.482 210.335,104.482 210.5,107.5C 209.167,107.5 207.833,107.5 206.5,107.5C 206.5,101.5 206.5,95.5 206.5,89.5 Z"/></g>
<g><path style="opacity:0.85" fill="#7b0e34" d="M 222.5,89.5 C 224.199,89.3398 225.866,89.5065 227.5,90C 229.207,93.2485 231.04,96.4151 233,99.5C 233.498,96.1832 233.665,92.8499 233.5,89.5C 234.833,89.5 236.167,89.5 237.5,89.5C 237.5,95.5 237.5,101.5 237.5,107.5C 235.712,107.785 234.045,107.452 232.5,106.5C 230.667,103.5 228.833,100.5 227,97.5C 226.502,100.817 226.335,104.15 226.5,107.5C 225.167,107.5 223.833,107.5 222.5,107.5C 222.5,101.5 222.5,95.5 222.5,89.5 Z"/></g>
<g><path style="opacity:0.818" fill="#7a0e33" d="M 254.5,92.5 C 254.328,93.4916 254.662,94.1583 255.5,94.5C 257.007,104.158 253.007,108.325 243.5,107C 239.633,103.34 238.466,98.8398 240,93.5C 244.469,88.5066 249.302,88.1733 254.5,92.5 Z M 246.5,92.5 C 251.078,93.819 252.578,96.819 251,101.5C 246.634,104.794 243.8,103.794 242.5,98.5C 242.937,95.775 244.27,93.775 246.5,92.5 Z"/></g>
<g><path style="opacity:0.782" fill="#7a0e33" d="M 255.5,94.5 C 255.672,93.5084 255.338,92.8417 254.5,92.5C 254.5,91.5 254.5,90.5 254.5,89.5C 256.144,89.2865 257.644,89.6198 259,90.5C 259.75,94.4187 261.083,98.0854 263,101.5C 264.013,97.7805 265.18,94.1138 266.5,90.5C 267.689,89.5713 269.022,89.238 270.5,89.5C 268.833,95.5 267.167,101.5 265.5,107.5C 263.533,107.739 261.699,107.406 260,106.5C 258.766,102.285 257.266,98.2848 255.5,94.5 Z"/></g>
<g><path style="opacity:0.785" fill="#7a0e34" d="M 272.5,89.5 C 274.5,89.5 276.5,89.5 278.5,89.5C 280.167,95.5 281.833,101.5 283.5,107.5C 280.68,106.804 278.013,105.804 275.5,104.5C 272.987,105.804 270.32,106.804 267.5,107.5C 269.167,101.5 270.833,95.5 272.5,89.5 Z M 274.5,96.5 C 276.026,97.1047 277.026,98.2714 277.5,100C 276.167,100.667 274.833,100.667 273.5,100C 274.337,98.9887 274.67,97.8221 274.5,96.5 Z"/></g>
<g><path style="opacity:0.871" fill="#7c0e33" d="M 280.5,89.5 C 285.5,89.5 290.5,89.5 295.5,89.5C 295.616,92.9103 293.95,94.2436 290.5,93.5C 290.5,98.1667 290.5,102.833 290.5,107.5C 288.833,107.5 287.167,107.5 285.5,107.5C 285.5,102.833 285.5,98.1667 285.5,93.5C 283.833,93.5 282.167,93.5 280.5,93.5C 280.5,92.1667 280.5,90.8333 280.5,89.5 Z"/></g>
<g><path style="opacity:0.697" fill="#7b0f35" d="M 296.5,89.5 C 297.833,89.5 299.167,89.5 300.5,89.5C 300.5,95.5 300.5,101.5 300.5,107.5C 299.167,107.5 297.833,107.5 296.5,107.5C 296.5,101.5 296.5,95.5 296.5,89.5 Z"/></g>
<g><path style="opacity:0.773" fill="#7a0e33" d="M 301.5,90.5 C 302.919,89.5489 304.585,89.2155 306.5,89.5C 307.506,93.8579 308.673,98.1912 310,102.5C 311.684,98.2845 312.851,93.9512 313.5,89.5C 315.288,89.2148 316.955,89.5481 318.5,90.5C 316.372,95.3848 314.538,100.385 313,105.5C 311.507,107.56 309.674,107.893 307.5,106.5C 305.668,100.99 303.668,95.657 301.5,90.5 Z"/></g>
<g><path style="opacity:0.82" fill="#7b0e33" d="M 319.5,89.5 C 323.167,89.5 326.833,89.5 330.5,89.5C 330.5,90.8333 330.5,92.1667 330.5,93.5C 328.167,93.5 325.833,93.5 323.5,93.5C 323.5,94.5 323.5,95.5 323.5,96.5C 325.167,96.5 326.833,96.5 328.5,96.5C 328.5,97.8333 328.5,99.1667 328.5,100.5C 326.833,100.5 325.167,100.5 323.5,100.5C 323.5,101.5 323.5,102.5 323.5,103.5C 325.833,103.5 328.167,103.5 330.5,103.5C 330.5,104.833 330.5,106.167 330.5,107.5C 326.833,107.5 323.167,107.5 319.5,107.5C 319.5,101.5 319.5,95.5 319.5,89.5 Z"/></g>
<g><path style="opacity:0.833" fill="#7a0f34" d="M 341.5,89.5 C 352.876,88.0358 357.376,92.7024 355,103.5C 351.265,107.096 346.765,108.429 341.5,107.5C 341.5,101.5 341.5,95.5 341.5,89.5 Z M 344.5,93.5 C 348.841,92.6634 351.508,94.33 352.5,98.5C 351.399,102.591 348.733,104.258 344.5,103.5C 344.5,100.167 344.5,96.8333 344.5,93.5 Z"/></g>
<g><path style="opacity:0.764" fill="#7c0d33" d="M 358.5,89.5 C 362.167,89.5 365.833,89.5 369.5,89.5C 369.5,90.8333 369.5,92.1667 369.5,93.5C 367.167,93.5 364.833,93.5 362.5,93.5C 362.5,94.5 362.5,95.5 362.5,96.5C 363.833,96.5 365.167,96.5 366.5,96.5C 366.5,97.8333 366.5,99.1667 366.5,100.5C 365.167,100.5 363.833,100.5 362.5,100.5C 362.5,101.5 362.5,102.5 362.5,103.5C 364.833,103.5 367.167,103.5 369.5,103.5C 369.5,104.833 369.5,106.167 369.5,107.5C 365.833,107.5 362.167,107.5 358.5,107.5C 358.5,101.5 358.5,95.5 358.5,89.5 Z"/></g>
<g><path style="opacity:0.797" fill="#780e32" d="M 374.5,89.5 C 377.448,89.2229 380.281,89.5562 383,90.5C 383.699,92.0738 383.365,93.4071 382,94.5C 379.936,93.4086 377.769,93.2419 375.5,94C 378.423,96.0455 381.257,98.2121 384,100.5C 384.92,103.308 384.087,105.475 381.5,107C 377.882,107.966 374.549,107.466 371.5,105.5C 372,104.5 372.5,103.5 373,102.5C 375.466,103.777 377.966,103.777 380.5,102.5C 377.351,100.514 374.517,98.181 372,95.5C 371.034,92.6603 371.867,90.6603 374.5,89.5 Z"/></g>
<g><path style="opacity:0.847" fill="#7b0e35" d="M 386.5,89.5 C 387.833,89.5 389.167,89.5 390.5,89.5C 390.5,95.5 390.5,101.5 390.5,107.5C 389.167,107.5 387.833,107.5 386.5,107.5C 386.5,101.5 386.5,95.5 386.5,89.5 Z"/></g>
<g><path style="opacity:0.806" fill="#7a0e33" d="M 396.5,89.5 C 399.187,89.3359 401.854,89.5026 404.5,90C 408.451,91.9848 408.285,93.8181 404,95.5C 402.116,93.4237 399.949,93.0903 397.5,94.5C 396.456,96.7676 396.289,99.1009 397,101.5C 399.024,103.884 401.191,104.051 403.5,102C 402.552,101.517 401.552,101.351 400.5,101.5C 400.5,100.167 400.5,98.8333 400.5,97.5C 403.167,97.5 405.833,97.5 408.5,97.5C 408.519,105.642 404.519,108.808 396.5,107C 391.19,101.096 391.19,95.263 396.5,89.5 Z"/></g>
<g><path style="opacity:0.808" fill="#7b0e33" d="M 410.5,89.5 C 411.873,89.3433 413.207,89.51 414.5,90C 416.458,92.7482 418.291,95.5815 420,98.5C 420.498,95.5184 420.665,92.5184 420.5,89.5C 421.833,89.5 423.167,89.5 424.5,89.5C 424.5,95.5 424.5,101.5 424.5,107.5C 423.127,107.657 421.793,107.49 420.5,107C 418.542,104.252 416.709,101.418 415,98.5C 414.502,101.482 414.335,104.482 414.5,107.5C 413.167,107.5 411.833,107.5 410.5,107.5C 410.5,101.5 410.5,95.5 410.5,89.5 Z"/></g>
<g><path style="opacity:0.801" fill="#790e32" d="M 429.5,89.5 C 432.187,89.3359 434.854,89.5026 437.5,90C 438.535,91.5069 438.368,93.0069 437,94.5C 434.936,93.4086 432.769,93.2419 430.5,94C 433.423,96.0455 436.257,98.2121 439,100.5C 439.92,103.308 439.087,105.475 436.5,107C 432.882,107.966 429.549,107.466 426.5,105.5C 427,104.5 427.5,103.5 428,102.5C 430.466,103.777 432.966,103.777 435.5,102.5C 432.792,100.389 429.959,98.3895 427,96.5C 425.916,93.3411 426.75,91.0078 429.5,89.5 Z"/></g>
<g><path style="opacity:1" fill="#852440" d="M 44.5,125.5 C 46.1667,125.5 47.8333,125.5 49.5,125.5C 45.318,142.894 40.818,160.227 36,177.5C 35.1721,181.466 34.6721,185.466 34.5,189.5C 31.4281,189.817 28.4281,189.484 25.5,188.5C 28.6857,182.444 31.1857,176.111 33,169.5C 37.1457,154.899 40.9791,140.233 44.5,125.5 Z"/></g>
<g><path style="opacity:1" fill="#7d1335" d="M 110.5,125.5 C 124.183,125.167 137.85,125.501 151.5,126.5C 156.23,143.191 161.063,159.857 166,176.5C 168.039,180.745 170.206,184.912 172.5,189C 156.837,189.5 141.17,189.667 125.5,189.5C 125.513,183.062 124.679,176.729 123,170.5C 118.928,155.454 114.761,140.454 110.5,125.5 Z"/></g>
<g><path style="opacity:1" fill="#7d1336" d="M 191.5,125.5 C 204.167,125.5 216.833,125.5 229.5,125.5C 229.5,145.167 229.5,164.833 229.5,184.5C 257.607,186.758 284.774,182.758 311,172.5C 311.5,172.833 312,173.167 312.5,173.5C 309.893,178.38 307.56,183.38 305.5,188.5C 266.506,189.5 227.506,189.833 188.5,189.5C 190.286,168.208 191.286,146.875 191.5,125.5 Z"/></g>
<g><path style="opacity:1" fill="#7d1436" d="M 378.5,125.5 C 391.5,125.5 404.5,125.5 417.5,125.5C 417.137,146.874 417.804,168.208 419.5,189.5C 405.167,189.5 390.833,189.5 376.5,189.5C 378.218,168.209 378.884,146.876 378.5,125.5 Z"/></g>
</svg>
